<svg width="91" height="90" viewBox="0 0 91 90" fill="none" xmlns="http://www.w3.org/2000/svg">
<path d="M78.7541 29.8579C78.7541 31.3492 79.3465 32.7795 80.401 33.834C81.4555 34.8885 82.8857 35.4809 84.377 35.4809C85.8683 35.4809 87.2986 34.8885 88.3531 33.834C89.4076 32.7795 90 31.3492 90 29.8579V5.62296C90 4.13166 89.4076 2.70144 88.3531 1.64693C87.2986 0.592419 85.8683 0 84.377 0H60.1983C58.707 0 57.2768 0.592419 56.2223 1.64693C55.1678 2.70144 54.5753 4.13166 54.5753 5.62296C54.5753 7.11426 55.1678 8.54449 56.2223 9.599C57.2768 10.6535 58.707 11.2459 60.1983 11.2459H70.8257L45.0163 37.0553L12.1782 4.27345C11.1025 3.35226 9.71885 2.8709 8.30368 2.92556C6.88852 2.98022 5.5461 3.56688 4.54468 4.5683C3.54326 5.56972 2.9566 6.91214 2.90194 8.32731C2.84728 9.74247 3.32864 11.1261 4.24983 12.2018L37.0317 44.9837L1.66326 80.3521C1.13623 80.8749 0.717916 81.4968 0.432446 82.182C0.146976 82.8672 0 83.6021 0 84.3444C0 85.0867 0.146976 85.8217 0.432446 86.5069C0.717916 87.1921 1.13623 87.814 1.66326 88.3367C2.18599 88.8638 2.8079 89.2821 3.49311 89.5676C4.17832 89.853 4.91327 90 5.65557 90C6.39786 90 7.13282 89.853 7.81803 89.5676C8.50324 89.2821 9.12514 88.8638 9.64787 88.3367L78.7541 19.2305V29.8579Z" fill="white" fill-opacity="0.6"/>
<path d="M84.3769 54.4311C82.8856 54.4311 81.4554 55.0235 80.4009 56.078C79.3464 57.1325 78.754 58.5627 78.754 60.054V70.7939L63.1221 55.1058C62.0633 54.047 60.6272 53.4521 59.1298 53.4521C57.6324 53.4521 56.1963 54.047 55.1375 55.1058C54.0787 56.1646 53.4838 57.6007 53.4838 59.0981C53.4838 60.5955 54.0787 62.0316 55.1375 63.0904L70.7131 78.7223H60.1419C58.6506 78.7223 57.2204 79.3147 56.1659 80.3692C55.1114 81.4237 54.519 82.8539 54.519 84.3452C54.519 85.8365 55.1114 87.2668 56.1659 88.3213C57.2204 89.3758 58.6506 89.9682 60.1419 89.9682H84.3769C85.1704 89.973 85.9559 89.8098 86.6818 89.4894C87.4077 89.169 88.0576 88.6985 88.5887 88.109C89.1198 87.5194 89.5202 86.8242 89.7634 86.0689C90.0066 85.3136 90.0872 84.5154 89.9999 83.7267V60.054C89.9999 58.5627 89.4075 57.1325 88.353 56.078C87.2985 55.0235 85.8682 54.4311 84.3769 54.4311Z" fill="white" fill-opacity="0.6"/>
</svg>
