<svg width="82" height="82" viewBox="0 0 82 82" fill="none" xmlns="http://www.w3.org/2000/svg">
<g filter="url(#filter0_dd_2_24)">
<circle cx="41" cy="41" r="21" fill="#3F3756"/>
</g>
<path d="M45.0353 43.3882C46.6758 43.3882 48 44.7124 48 46.3529C48 47.9934 46.6758 49.3176 45.0353 49.3176C43.3948 49.3176 42.0706 47.9934 42.0706 46.3529C42.0706 46.1157 42.1003 45.8983 42.1595 45.671L37.8311 43.3981C37.2875 44.0009 36.5167 44.3764 35.6471 44.3764C34.0066 44.3764 32.6824 43.0522 32.6824 41.4117C32.6824 39.7713 34.0066 38.447 35.6471 38.447C36.5167 38.447 37.2875 38.8324 37.8311 39.4254L42.1595 37.1524C42.1003 36.9252 42.0706 36.7077 42.0706 36.4706C42.0706 34.8301 43.3948 33.5059 45.0353 33.5059C46.6758 33.5059 48 34.8301 48 36.4706C48 38.111 46.6758 39.4353 45.0353 39.4353C44.1657 39.4353 43.3948 39.0499 42.8513 38.4569L38.5228 40.7299C38.6425 41.1766 38.6425 41.6469 38.5228 42.0936L42.8513 44.3666C43.3948 43.7637 44.1657 43.3882 45.0353 43.3882Z" fill="#BAAFE8" fill-opacity="0.21"/>
<defs>
<filter id="filter0_dd_2_24" x="0" y="0" width="82" height="82" filterUnits="userSpaceOnUse" color-interpolation-filters="sRGB">
<feFlood flood-opacity="0" result="BackgroundImageFix"/>
<feColorMatrix in="SourceAlpha" type="matrix" values="0 0 0 0 0 0 0 0 0 0 0 0 0 0 0 0 0 0 127 0" result="hardAlpha"/>
<feOffset dx="5" dy="5"/>
<feGaussianBlur stdDeviation="7.5"/>
<feColorMatrix type="matrix" values="0 0 0 0 0.134127 0 0 0 0 0.101111 0 0 0 0 0.216667 0 0 0 1 0"/>
<feBlend mode="normal" in2="BackgroundImageFix" result="effect1_dropShadow_2_24"/>
<feColorMatrix in="SourceAlpha" type="matrix" values="0 0 0 0 0 0 0 0 0 0 0 0 0 0 0 0 0 0 127 0" result="hardAlpha"/>
<feOffset dx="-5" dy="-5"/>
<feGaussianBlur stdDeviation="7.5"/>
<feColorMatrix type="matrix" values="0 0 0 0 0.311044 0 0 0 0 0.274306 0 0 0 0 0.416667 0 0 0 1 0"/>
<feBlend mode="normal" in2="effect1_dropShadow_2_24" result="effect2_dropShadow_2_24"/>
<feBlend mode="normal" in="SourceGraphic" in2="effect2_dropShadow_2_24" result="shape"/>
</filter>
</defs>
</svg>
